<svg width="621" height="369" viewBox="0 0 621 369" fill="none" xmlns="http://www.w3.org/2000/svg" xmlns:xlink="http://www.w3.org/1999/xlink">
<rect x="0.866044" width="420.163" height="293.814" rx="7.5" transform="matrix(0.866044 -0.499967 0.866044 0.499967 0.116012 222.001)" fill="#0C0C0C" fill-opacity="0.8" stroke="#333232"/>
<rect x="0.866044" width="420.163" height="293.814" rx="7.5" transform="matrix(0.866044 -0.499967 0.866044 0.499967 0.116012 211.001)" stroke="#656565"/>
<rect x="0.866044" width="420.163" height="293.814" rx="7.5" transform="matrix(0.866044 -0.499967 0.866044 0.499967 0.116012 211.001)" stroke="#656565"/>
<rect x="0.866044" width="80.6479" height="80.6479" rx="7.5" transform="matrix(0.866044 -0.499967 0.866044 0.499967 102.116 195.254)" fill="#0C0C0C" stroke="#565353"/>
<rect x="0.866044" width="80.6479" height="80.6479" rx="7.5" transform="matrix(0.866044 -0.499967 0.866044 0.499967 102.116 187.254)" fill="#0C0C0C" stroke="#565353"/>
<rect x="0.866044" width="80.6479" height="80.6479" rx="7.5" transform="matrix(0.866044 -0.499967 0.866044 0.499967 207.116 258.254)" fill="#0C0C0C" stroke="#565353"/>
<rect x="0.866044" width="80.6479" height="80.6479" rx="7.5" transform="matrix(0.866044 -0.499967 0.866044 0.499967 207.116 250.254)" fill="#0C0C0C" stroke="#565353"/>
<rect x="0.866044" width="80.6479" height="80.6479" rx="7.5" transform="matrix(0.866044 -0.499967 0.866044 0.499967 268.116 99.2543)" fill="#0C0C0C" stroke="#565353"/>
<rect x="0.866044" width="80.6479" height="80.6479" rx="7.5" transform="matrix(0.866044 -0.499967 0.866044 0.499967 268.116 91.2543)" fill="#0C0C0C" stroke="#565353"/>
<rect x="0.866044" width="80.6479" height="80.6479" rx="7.5" transform="matrix(0.866044 -0.499967 0.866044 0.499967 376.116 162.254)" fill="#0C0C0C" stroke="#565353"/>
<rect x="0.866044" width="80.6479" height="80.6479" rx="7.5" transform="matrix(0.866044 -0.499967 0.866044 0.499967 376.116 154.254)" fill="#0C0C0C" stroke="#565353"/>
<path d="M169.974 183.738C172.659 182.188 172.659 179.675 169.974 178.125C167.289 176.575 162.936 176.575 160.251 178.125C157.566 179.675 157.566 182.188 160.251 183.738C162.936 185.288 167.289 185.288 169.974 183.738Z" fill="#6C47FF"/>
<path d="M160.825 168.473C161.636 168.38 162.363 168.752 162.363 169.229L162.363 173.331C162.363 173.702 161.915 174.019 161.304 174.133C159.497 174.469 157.797 175.051 156.362 175.88C151.53 178.67 151.53 183.193 156.362 185.983C157.797 186.812 159.497 187.394 161.304 187.73C161.915 187.844 162.363 188.161 162.363 188.532L162.363 192.634C162.363 193.111 161.636 193.483 160.825 193.39C156.696 192.919 152.756 191.759 149.556 189.912C140.965 184.952 140.965 176.911 149.556 171.951C152.756 170.104 156.696 168.944 160.825 168.473Z" fill="#BAB1FF"/>
<path d="M185.383 182.519C186.211 182.519 186.854 182.938 186.693 183.407C185.877 185.791 183.869 188.065 180.669 189.912C177.469 191.759 173.529 192.919 169.4 193.39C168.589 193.483 167.863 193.111 167.863 192.634L167.863 188.532C167.863 188.161 168.31 187.844 168.921 187.73C170.728 187.394 172.428 186.812 173.863 185.983C175.298 185.155 176.307 184.174 176.89 183.13C177.087 182.777 177.636 182.519 178.278 182.519L185.383 182.519Z" fill="#6C47FF"/>
<path d="M181.425 197.64L180.429 198.215C180.083 198.084 179.729 197.998 179.364 197.958C179.003 197.916 178.644 197.913 178.288 197.948C177.931 197.981 177.59 198.048 177.263 198.15C176.936 198.252 176.636 198.382 176.363 198.54C175.865 198.827 175.54 199.161 175.387 199.539C175.237 199.917 175.288 200.316 175.54 200.736C175.794 201.155 176.277 201.57 176.99 201.982C177.702 202.393 178.422 202.672 179.147 202.819C179.876 202.964 180.567 202.994 181.22 202.907C181.877 202.819 182.454 202.631 182.952 202.344C183.225 202.186 183.45 202.013 183.627 201.824C183.804 201.635 183.922 201.439 183.981 201.235C184.04 201.028 184.033 200.82 183.961 200.611C183.888 200.399 183.74 200.194 183.515 199.996L184.511 199.421C184.856 199.707 185.096 200.003 185.23 200.309C185.364 200.616 185.4 200.921 185.339 201.226C185.274 201.529 185.119 201.821 184.873 202.102C184.629 202.382 184.299 202.642 183.884 202.882C183.182 203.287 182.387 203.548 181.498 203.666C180.608 203.783 179.691 203.75 178.746 203.566C177.8 203.382 176.893 203.039 176.026 202.538C175.158 202.037 174.565 201.514 174.246 200.968C173.927 200.422 173.87 199.893 174.073 199.379C174.277 198.866 174.729 198.407 175.431 198.002C175.846 197.762 176.296 197.572 176.781 197.431C177.268 197.289 177.776 197.2 178.304 197.164C178.829 197.127 179.356 197.147 179.887 197.225C180.414 197.3 180.927 197.439 181.425 197.64Z" fill="white"/>
<path d="M181.284 194.753L189.512 199.503L188.564 200.05L180.336 195.3L181.284 194.753Z" fill="white"/>
<path d="M193.964 197.081C193.37 197.424 192.726 197.644 192.032 197.742C191.338 197.836 190.638 197.814 189.931 197.675C189.224 197.532 188.554 197.279 187.922 196.914C187.29 196.549 186.848 196.161 186.596 195.75C186.344 195.335 186.291 194.93 186.435 194.534C186.58 194.135 186.931 193.775 187.488 193.453C187.809 193.268 188.18 193.115 188.601 192.996C189.021 192.877 189.481 192.813 189.979 192.804C190.474 192.793 190.995 192.857 191.542 192.996C192.088 193.136 192.649 193.371 193.225 193.704L193.627 193.936L188.87 196.682L188.05 196.209L191.843 194.019C191.495 193.818 191.115 193.679 190.702 193.602C190.292 193.523 189.881 193.511 189.469 193.567C189.059 193.621 188.683 193.747 188.34 193.945C187.962 194.163 187.729 194.406 187.641 194.673C187.552 194.938 187.583 195.198 187.733 195.455C187.883 195.712 188.128 195.938 188.468 196.135L189.015 196.45C189.481 196.719 189.956 196.901 190.441 196.995C190.926 197.086 191.397 197.097 191.855 197.028C192.311 196.956 192.73 196.81 193.113 196.589C193.362 196.445 193.552 196.295 193.683 196.139C193.814 195.98 193.883 195.817 193.888 195.65C193.891 195.481 193.825 195.312 193.691 195.142L194.864 194.761C195.079 194.996 195.19 195.248 195.198 195.515C195.203 195.781 195.104 196.049 194.901 196.318C194.694 196.585 194.382 196.84 193.964 197.081Z" fill="white"/>
<path d="M197.833 194.699L191.662 191.136L192.578 190.607L193.51 191.146L193.575 191.108C193.382 190.867 193.338 190.607 193.442 190.327C193.547 190.047 193.784 189.8 194.153 189.587C194.223 189.547 194.311 189.497 194.418 189.438C194.526 189.38 194.609 189.336 194.668 189.309L195.632 189.865C195.592 189.879 195.506 189.915 195.375 189.972C195.243 190.026 195.115 190.089 194.989 190.162C194.689 190.335 194.484 190.526 194.374 190.735C194.264 190.941 194.251 191.146 194.334 191.352C194.417 191.555 194.598 191.736 194.876 191.897L198.782 194.151L197.833 194.699Z" fill="white"/>
<path d="M200.677 190.46L199.488 189.792L199.681 189.68L199.632 186.535L200.806 185.858L200.838 189.198L200.757 189.244L200.677 190.46ZM202.043 192.269L193.815 187.519L194.763 186.971L202.991 191.721L202.043 192.269ZM205.964 190.005L200.5 189.634L200.516 188.864L207.169 189.309L205.964 190.005Z" fill="white"/>
<path d="M270.09 276.814L261.861 272.064L266.827 269.197L267.711 269.707L263.742 271.999L266.522 273.604L270.234 271.461L271.118 271.971L267.406 274.114L270.202 275.728L274.236 273.4L275.12 273.91L270.09 276.814Z" fill="white"/>
<path d="M273.959 270.294L277.671 272.437L276.723 272.985L270.552 269.422L271.468 268.893L272.432 269.45L272.512 269.403C272.343 269.139 272.311 268.867 272.416 268.587C272.518 268.306 272.801 268.03 273.268 267.761C273.685 267.52 274.137 267.359 274.621 267.277C275.104 267.193 275.604 267.201 276.124 267.3C276.641 267.397 277.162 267.597 277.687 267.9L281.608 270.164L280.66 270.712L276.803 268.485C276.318 268.205 275.815 268.06 275.292 268.049C274.767 268.037 274.285 268.157 273.846 268.411C273.543 268.585 273.338 268.78 273.231 268.993C273.127 269.205 273.132 269.423 273.247 269.647C273.363 269.871 273.6 270.087 273.959 270.294Z" fill="white"/>
<path d="M285.976 267.791C285.398 268.125 284.763 268.334 284.072 268.417C283.381 268.501 282.683 268.469 281.979 268.322C281.274 268.175 280.614 267.924 279.998 267.568C279.371 267.206 278.933 266.821 278.684 266.411C278.435 265.998 278.383 265.594 278.528 265.198C278.672 264.799 279.023 264.439 279.58 264.117C280.014 263.866 280.486 263.687 280.994 263.579C281.503 263.471 282.014 263.436 282.525 263.474C283.037 263.513 283.512 263.628 283.951 263.82L283.003 264.367C282.65 264.247 282.24 264.196 281.774 264.214C281.308 264.23 280.866 264.358 280.448 264.599C280.078 264.813 279.851 265.056 279.765 265.328C279.679 265.597 279.733 265.877 279.926 266.167C280.119 266.455 280.448 266.733 280.914 267.002C281.391 267.278 281.881 267.474 282.385 267.591C282.891 267.707 283.38 267.742 283.851 267.696C284.325 267.648 284.75 267.516 285.125 267.299C285.371 267.157 285.552 267.003 285.667 266.838C285.782 266.672 285.829 266.503 285.808 266.33C285.786 266.156 285.692 265.988 285.526 265.824L286.475 265.277C286.785 265.518 286.981 265.784 287.061 266.075C287.141 266.362 287.095 266.655 286.92 266.954C286.746 267.249 286.432 267.528 285.976 267.791Z" fill="white"/>
<path d="M289.661 265.516L283.489 261.953L284.405 261.424L285.338 261.962L285.402 261.925C285.209 261.684 285.165 261.423 285.269 261.144C285.374 260.864 285.611 260.617 285.98 260.404C286.05 260.363 286.138 260.314 286.246 260.255C286.353 260.196 286.436 260.153 286.495 260.125L287.459 260.682C287.419 260.696 287.333 260.731 287.202 260.789C287.07 260.843 286.942 260.906 286.816 260.979C286.516 261.152 286.311 261.343 286.201 261.552C286.092 261.757 286.078 261.963 286.161 262.169C286.244 262.371 286.425 262.553 286.704 262.714L290.609 264.968L289.661 265.516Z" fill="white"/>
<path d="M296.983 263.96C296.822 264.053 296.665 264.128 296.513 264.185C296.363 264.244 296.251 264.28 296.179 264.294L295.585 263.673C295.874 263.574 296.099 263.469 296.26 263.357C296.42 263.246 296.498 263.11 296.493 262.949C296.493 262.788 296.393 262.584 296.195 262.337L295.89 261.956L287.405 259.693L288.433 259.099L295.054 260.954L295.119 260.917L291.904 257.095L292.933 256.501L297.384 262.096C297.585 262.348 297.703 262.584 297.738 262.805C297.776 263.028 297.73 263.235 297.601 263.427C297.476 263.617 297.269 263.795 296.983 263.96Z" fill="white"/>
<path d="M302.67 260.677L294.184 255.779L295.1 255.25L296.081 255.816L296.193 255.751C296.156 255.649 296.116 255.514 296.073 255.347C296.03 255.177 296.059 254.987 296.161 254.777C296.263 254.563 296.515 254.341 296.916 254.109C297.436 253.809 298.024 253.619 298.68 253.541C299.336 253.462 300.014 253.496 300.713 253.643C301.412 253.789 302.086 254.05 302.734 254.424C303.388 254.802 303.843 255.193 304.1 255.598C304.354 256.001 304.416 256.393 304.285 256.771C304.151 257.149 303.827 257.486 303.313 257.783C302.916 258.012 302.533 258.157 302.163 258.219C301.791 258.279 301.456 258.298 301.159 258.274C300.859 258.25 300.618 258.225 300.436 258.2L300.356 258.247L303.618 260.13L302.67 260.677ZM298.202 257.022C298.668 257.291 299.148 257.489 299.64 257.616C300.131 257.741 300.607 257.786 301.071 257.75C301.531 257.713 301.952 257.585 302.332 257.365C302.729 257.136 302.955 256.885 303.011 256.611C303.067 256.335 302.984 256.055 302.762 255.772C302.54 255.486 302.209 255.216 301.77 254.962C301.336 254.712 300.878 254.525 300.396 254.401C299.914 254.274 299.437 254.229 298.965 254.267C298.494 254.301 298.057 254.434 297.656 254.665C297.27 254.888 297.044 255.132 296.977 255.396C296.907 255.659 296.979 255.93 297.194 256.208C297.405 256.485 297.741 256.756 298.202 257.022Z" fill="white"/>
<path d="M303.762 250.249L304.566 250.713L301.368 252.559L300.564 252.096L303.762 250.249ZM300.018 250.704L300.966 250.157L306.848 253.552C307.116 253.707 307.356 253.8 307.567 253.833C307.779 253.862 307.969 253.854 308.138 253.81C308.306 253.762 308.46 253.697 308.6 253.617C308.704 253.557 308.785 253.504 308.841 253.459C308.894 253.413 308.937 253.376 308.969 253.348L310.014 253.728C309.974 253.779 309.908 253.845 309.817 253.926C309.729 254.008 309.596 254.1 309.419 254.202C309.152 254.356 308.831 254.474 308.459 254.556C308.09 254.637 307.702 254.658 307.298 254.619C306.896 254.579 306.516 254.455 306.157 254.248L300.018 250.704Z" fill="white"/>
<path d="M311.36 252.989L305.189 249.426L306.137 248.879L312.308 252.441L311.36 252.989ZM304.642 248.554C304.458 248.661 304.235 248.716 303.975 248.721C303.718 248.724 303.501 248.674 303.325 248.572C303.148 248.47 303.062 248.345 303.067 248.197C303.075 248.047 303.172 247.918 303.357 247.812C303.542 247.705 303.762 247.65 304.02 247.647C304.279 247.642 304.498 247.691 304.674 247.793C304.851 247.895 304.936 248.021 304.928 248.171C304.922 248.32 304.827 248.447 304.642 248.554Z" fill="white"/>
<path d="M316.68 250.066C316.123 250.387 315.502 250.593 314.816 250.682C314.133 250.771 313.435 250.745 312.723 250.606C312.013 250.465 311.339 250.211 310.702 249.843C310.059 249.472 309.615 249.081 309.368 248.669C309.124 248.256 309.079 247.853 309.232 247.459C309.387 247.063 309.743 246.704 310.3 246.382C310.857 246.061 311.477 245.856 312.16 245.768C312.846 245.678 313.545 245.704 314.258 245.847C314.973 245.987 315.652 246.243 316.295 246.614C316.932 246.982 317.371 247.372 317.612 247.783C317.856 248.193 317.9 248.596 317.745 248.992C317.592 249.386 317.237 249.744 316.68 250.066ZM315.829 249.574C316.252 249.329 316.491 249.066 316.548 248.783C316.604 248.5 316.521 248.219 316.299 247.939C316.076 247.659 315.759 247.4 315.346 247.162C314.934 246.924 314.484 246.74 313.996 246.61C313.509 246.48 313.019 246.43 312.526 246.461C312.033 246.492 311.575 246.63 311.152 246.874C310.729 247.118 310.49 247.383 310.437 247.667C310.383 247.952 310.469 248.235 310.694 248.516C310.919 248.798 311.238 249.057 311.65 249.295C312.063 249.534 312.511 249.717 312.996 249.845C313.481 249.974 313.968 250.021 314.458 249.989C314.949 249.957 315.405 249.818 315.829 249.574Z" fill="white"/>
<path d="M318.031 244.851L321.743 246.994L320.795 247.541L314.624 243.979L315.54 243.45L316.504 244.007L316.585 243.96C316.416 243.696 316.384 243.424 316.488 243.144C316.59 242.862 316.874 242.587 317.34 242.318C317.758 242.077 318.209 241.915 318.694 241.833C319.176 241.75 319.677 241.758 320.197 241.857C320.714 241.954 321.235 242.154 321.76 242.457L325.681 244.721L324.733 245.268L320.876 243.042C320.391 242.762 319.887 242.617 319.365 242.606C318.84 242.593 318.358 242.714 317.919 242.968C317.616 243.142 317.411 243.336 317.304 243.55C317.2 243.762 317.205 243.98 317.32 244.204C317.435 244.428 317.672 244.644 318.031 244.851Z" fill="white"/>
<path d="M245.075 243.902L250.732 247.168L250.047 247.563L245.108 244.712L245.075 244.731L244.611 246.058L243.915 245.656L244.39 244.298L245.075 243.902Z" fill="white"/>
<path d="M256.469 243.945C256.053 244.185 255.585 244.325 255.066 244.363C254.545 244.4 253.99 244.338 253.403 244.178C252.814 244.016 252.211 243.758 251.596 243.403C250.985 243.05 250.54 242.704 250.262 242.365C249.984 242.024 249.877 241.703 249.942 241.402C250.006 241.099 250.245 240.828 250.657 240.59C251.07 240.352 251.537 240.215 252.06 240.179C252.583 240.14 253.14 240.202 253.729 240.364C254.318 240.523 254.918 240.779 255.53 241.132C256.145 241.487 256.592 241.835 256.872 242.175C257.15 242.514 257.257 242.834 257.192 243.135C257.126 243.435 256.885 243.705 256.469 243.945ZM255.861 243.594C256.274 243.356 256.395 243.056 256.226 242.695C256.056 242.334 255.603 241.94 254.867 241.515C254.377 241.232 253.907 241.022 253.458 240.884C253.011 240.744 252.599 240.679 252.223 240.687C251.85 240.695 251.526 240.777 251.254 240.935C250.845 241.171 250.727 241.471 250.9 241.837C251.072 242.202 251.525 242.596 252.259 243.02C252.749 243.303 253.217 243.514 253.662 243.652C254.108 243.79 254.517 243.855 254.889 243.846C255.263 243.837 255.587 243.753 255.861 243.594Z" fill="white"/>
<path d="M257.927 236.483L263.584 239.748L262.899 240.144L257.96 237.293L257.927 237.312L257.463 238.638L256.767 238.237L257.242 236.878L257.927 236.483Z" fill="white"/>
<path d="M269.321 236.526C268.905 236.766 268.437 236.905 267.918 236.943C267.397 236.981 266.842 236.919 266.255 236.758C265.666 236.597 265.064 236.338 264.449 235.983C263.837 235.63 263.393 235.284 263.115 234.945C262.836 234.604 262.73 234.283 262.794 233.982C262.859 233.679 263.097 233.409 263.51 233.171C263.922 232.932 264.39 232.795 264.913 232.759C265.436 232.721 265.992 232.783 266.581 232.944C267.17 233.104 267.771 233.36 268.382 233.713C268.997 234.068 269.444 234.415 269.724 234.756C270.002 235.095 270.109 235.415 270.045 235.716C269.978 236.015 269.737 236.285 269.321 236.526ZM268.713 236.175C269.126 235.937 269.247 235.637 269.078 235.275C268.909 234.914 268.456 234.521 267.719 234.095C267.229 233.813 266.76 233.602 266.31 233.464C265.863 233.325 265.451 233.259 265.076 233.268C264.702 233.275 264.379 233.358 264.106 233.515C263.697 233.751 263.579 234.052 263.753 234.418C263.924 234.782 264.377 235.177 265.112 235.601C265.601 235.883 266.069 236.094 266.515 236.232C266.96 236.37 267.369 236.435 267.741 236.427C268.115 236.417 268.439 236.333 268.713 236.175Z" fill="white"/>
<path d="M270.779 229.063L276.436 232.329L275.751 232.724L270.813 229.873L270.779 229.892L270.315 231.219L269.619 230.817L270.094 229.458L270.779 229.063Z" fill="white"/>
<path d="M259.235 252.962C258.819 253.202 258.351 253.341 257.832 253.379C257.311 253.417 256.757 253.355 256.169 253.195C255.58 253.033 254.978 252.775 254.363 252.42C253.751 252.067 253.307 251.721 253.029 251.381C252.751 251.04 252.644 250.719 252.708 250.418C252.773 250.115 253.011 249.845 253.424 249.607C253.836 249.369 254.304 249.231 254.827 249.195C255.35 249.157 255.906 249.219 256.495 249.38C257.084 249.54 257.685 249.796 258.296 250.149C258.911 250.504 259.358 250.852 259.638 251.192C259.916 251.531 260.023 251.851 259.959 252.152C259.892 252.451 259.651 252.721 259.235 252.962ZM258.627 252.611C259.04 252.373 259.161 252.073 258.992 251.712C258.823 251.35 258.37 250.957 257.633 250.532C257.143 250.249 256.674 250.038 256.224 249.9C255.777 249.761 255.365 249.695 254.99 249.704C254.616 249.711 254.293 249.794 254.02 249.951C253.611 250.187 253.494 250.488 253.667 250.854C253.838 251.218 254.291 251.613 255.026 252.037C255.515 252.32 255.983 252.53 256.429 252.668C256.874 252.806 257.283 252.871 257.655 252.863C258.029 252.853 258.353 252.769 258.627 252.611Z" fill="white"/>
<path d="M260.694 245.499L266.35 248.765L265.665 249.16L260.727 246.309L260.694 246.328L260.229 247.655L259.533 247.253L260.008 245.895L260.694 245.499Z" fill="white"/>
<path d="M272.087 245.542C271.671 245.782 271.203 245.922 270.684 245.96C270.163 245.997 269.609 245.935 269.021 245.775C268.432 245.613 267.83 245.355 267.215 245C266.604 244.647 266.159 244.301 265.881 243.962C265.603 243.621 265.496 243.3 265.56 242.999C265.625 242.696 265.863 242.425 266.276 242.187C266.688 241.949 267.156 241.812 267.679 241.776C268.202 241.737 268.758 241.799 269.347 241.961C269.937 242.12 270.537 242.376 271.148 242.729C271.763 243.084 272.211 243.432 272.491 243.772C272.769 244.111 272.875 244.431 272.811 244.732C272.745 245.032 272.503 245.302 272.087 245.542ZM271.48 245.191C271.892 244.953 272.014 244.653 271.844 244.292C271.675 243.931 271.222 243.537 270.485 243.112C269.995 242.829 269.526 242.619 269.077 242.481C268.629 242.341 268.218 242.276 267.842 242.284C267.468 242.292 267.145 242.374 266.872 242.532C266.464 242.768 266.346 243.068 266.519 243.434C266.69 243.799 267.143 244.193 267.878 244.617C268.368 244.9 268.835 245.111 269.281 245.249C269.727 245.387 270.135 245.452 270.507 245.443C270.881 245.434 271.205 245.35 271.48 245.191Z" fill="white"/>
<path d="M273.546 238.079L279.203 241.345L278.518 241.741L273.579 238.89L273.546 238.909L273.082 240.235L272.386 239.834L272.861 238.475L273.546 238.079Z" fill="white"/>
<path d="M284.94 238.123C284.523 238.363 284.056 238.502 283.536 238.54C283.015 238.578 282.461 238.516 281.874 238.355C281.284 238.194 280.682 237.935 280.067 237.58C279.456 237.227 279.011 236.881 278.733 236.542C278.455 236.201 278.348 235.88 278.413 235.579C278.477 235.276 278.716 235.006 279.128 234.768C279.54 234.529 280.008 234.392 280.531 234.356C281.054 234.318 281.61 234.38 282.199 234.541C282.789 234.701 283.389 234.957 284 235.31C284.615 235.665 285.063 236.012 285.343 236.353C285.621 236.692 285.728 237.012 285.663 237.312C285.597 237.612 285.356 237.882 284.94 238.123ZM284.332 237.772C284.744 237.534 284.866 237.234 284.696 236.872C284.527 236.511 284.074 236.118 283.337 235.692C282.848 235.41 282.378 235.199 281.929 235.061C281.481 234.922 281.07 234.856 280.694 234.865C280.32 234.872 279.997 234.955 279.725 235.112C279.316 235.348 279.198 235.649 279.371 236.014C279.542 236.379 279.995 236.774 280.73 237.198C281.22 237.48 281.688 237.691 282.133 237.829C282.579 237.967 282.988 238.032 283.36 238.024C283.733 238.014 284.057 237.93 284.332 237.772Z" fill="white"/>
<path d="M263.46 254.516L269.117 257.781L268.432 258.177L263.493 255.326L263.46 255.345L262.996 256.671L262.3 256.27L262.775 254.911L263.46 254.516Z" fill="white"/>
<path d="M274.854 254.559C274.437 254.799 273.97 254.938 273.45 254.976C272.929 255.014 272.375 254.952 271.788 254.791C271.198 254.63 270.596 254.372 269.981 254.017C269.37 253.664 268.925 253.318 268.647 252.978C268.369 252.637 268.262 252.316 268.327 252.015C268.391 251.712 268.63 251.442 269.042 251.204C269.455 250.966 269.922 250.828 270.445 250.792C270.968 250.754 271.524 250.816 272.114 250.977C272.703 251.137 273.303 251.393 273.914 251.746C274.53 252.101 274.977 252.449 275.257 252.789C275.535 253.128 275.642 253.448 275.577 253.749C275.511 254.048 275.27 254.318 274.854 254.559ZM274.246 254.208C274.658 253.97 274.78 253.67 274.611 253.309C274.441 252.947 273.988 252.554 273.252 252.129C272.762 251.846 272.292 251.635 271.843 251.497C271.395 251.358 270.984 251.292 270.608 251.301C270.234 251.308 269.911 251.391 269.639 251.548C269.23 251.784 269.112 252.085 269.285 252.451C269.456 252.815 269.909 253.21 270.644 253.634C271.134 253.917 271.602 254.127 272.047 254.265C272.493 254.403 272.902 254.468 273.274 254.46C273.647 254.45 273.972 254.366 274.246 254.208Z" fill="white"/>
<path d="M276.312 247.096L281.969 250.362L281.284 250.757L276.345 247.906L276.312 247.925L275.848 249.252L275.152 248.85L275.627 247.491L276.312 247.096Z" fill="white"/>
<path d="M287.706 247.139C287.29 247.379 286.822 247.519 286.303 247.557C285.782 247.594 285.227 247.532 284.64 247.372C284.051 247.21 283.448 246.952 282.833 246.597C282.222 246.244 281.777 245.898 281.499 245.559C281.221 245.218 281.114 244.897 281.179 244.596C281.243 244.293 281.482 244.022 281.894 243.784C282.307 243.546 282.774 243.409 283.297 243.373C283.82 243.334 284.377 243.396 284.966 243.558C285.555 243.717 286.155 243.973 286.767 244.326C287.382 244.681 287.829 245.029 288.109 245.369C288.387 245.708 288.494 246.028 288.429 246.329C288.363 246.629 288.122 246.899 287.706 247.139ZM287.098 246.788C287.511 246.55 287.632 246.25 287.463 245.889C287.293 245.528 286.84 245.134 286.104 244.709C285.614 244.426 285.144 244.216 284.695 244.077C284.248 243.938 283.836 243.873 283.46 243.881C283.087 243.889 282.763 243.971 282.491 244.129C282.082 244.365 281.964 244.665 282.137 245.031C282.309 245.396 282.762 245.79 283.496 246.214C283.986 246.497 284.454 246.707 284.899 246.846C285.345 246.984 285.754 247.049 286.126 247.04C286.5 247.031 286.824 246.947 287.098 246.788Z" fill="white"/>
<path d="M289.164 239.676L294.821 242.942L294.136 243.338L289.197 240.486L289.164 240.506L288.7 241.832L288.004 241.43L288.479 240.072L289.164 239.676Z" fill="white"/>
<path d="M343.854 82.0039C344.816 81.2947 346.944 79.7347 347.927 79.8062C348.901 79.8719 350.278 81.7182 350.883 82.5407C351.068 82.7893 351.458 82.7067 351.498 82.411C351.781 80.4948 349.082 78.3932 348.253 78.3394C347.433 78.2918 343.881 79.8923 343.31 81.7848C343.229 82.0804 343.567 82.2167 343.854 82.0039Z" fill="#FF9900"/>
<path d="M339.475 90.9385C343.682 88.5101 347.25 84.922 348.125 81.5393C348.268 80.9835 347.161 80.9 346.855 81.373C344.678 84.4768 341.354 87.2962 337.618 89.4527C332.081 92.6491 325.2 94.8569 318.338 95.9053C317.733 95.9938 317.837 96.3841 318.441 96.3669C326.084 96.1468 333.58 94.3417 339.475 90.9385Z" fill="#FF9900"/>
<path d="M320.341 87.6416C320.72 87.8607 321.069 88.0147 321.366 88.1037C321.711 88.1977 322.067 88.2769 322.432 88.3407C322.565 88.3587 322.668 88.3943 322.74 88.4357C322.843 88.495 322.884 88.5897 322.853 88.7257L322.639 89.3466C322.609 89.4352 322.547 89.5063 322.465 89.5535C322.363 89.6127 322.209 89.642 322.015 89.6477C321.728 89.6416 321.443 89.6197 321.164 89.5822C320.853 89.5345 320.545 89.4791 320.242 89.416C320.387 90.4216 319.856 91.2731 318.648 91.9703C317.789 92.4666 316.857 92.7202 315.863 92.7256C314.869 92.7309 313.957 92.4995 313.136 92.0259C312.264 91.5225 311.863 90.9368 311.955 90.2685C312.045 89.6001 312.608 88.9676 313.662 88.3589C314.01 88.1581 314.399 87.9691 314.829 87.78C315.259 87.5912 315.73 87.4139 316.232 87.2309L315.483 86.7986C314.703 86.3486 313.996 86.1293 313.36 86.129C312.715 86.1344 312.009 86.3648 311.221 86.8197C310.862 87.0265 310.535 87.2627 310.249 87.5346C309.962 87.8037 309.709 88.0843 309.492 88.3742C309.428 88.4715 309.353 88.5663 309.267 88.6579C309.216 88.711 309.175 88.7466 309.134 88.7703C308.991 88.8529 308.817 88.8352 308.601 88.7108L308.099 88.4206C307.935 88.3259 307.832 88.2428 307.812 88.172C307.791 88.101 307.811 88.0064 307.882 87.8821C308.056 87.5688 308.332 87.2318 308.71 86.8713C309.079 86.5049 309.549 86.1618 310.112 85.8369C311.33 85.1338 312.497 84.7798 313.624 84.7687C314.741 84.7634 315.869 85.0836 316.997 85.7349L320.32 87.6534L320.341 87.6416ZM317.745 90.9405C318.083 90.7455 318.369 90.509 318.614 90.2254C318.859 89.9416 318.961 89.6222 318.93 89.2852C318.899 89.078 318.806 88.8828 318.622 88.7052C318.437 88.5277 318.18 88.3324 317.832 88.1311L317.401 87.8824C317.015 88.0178 316.642 88.1657 316.285 88.3253C315.925 88.486 315.583 88.6596 315.261 88.845C314.575 89.2408 314.207 89.6074 314.147 89.9622C314.086 90.3171 314.312 90.6367 314.825 90.9327C315.307 91.211 315.788 91.3474 316.291 91.3417C316.793 91.348 317.274 91.2122 317.745 90.9405ZM327.071 86.8356C326.886 86.9419 326.733 86.9951 326.579 87.0009C326.436 87.0126 326.22 86.971 325.964 86.894L315.631 83.7053C315.364 83.6222 315.2 83.563 315.128 83.5216C314.964 83.4269 314.954 83.3264 315.117 83.2318L316.12 82.6529C316.315 82.5405 316.479 82.4814 316.622 82.4815C316.766 82.4698 316.971 82.5174 317.227 82.5943L325.736 85.5215L320.543 80.68C320.389 80.532 320.317 80.4197 320.337 80.3368C320.357 80.2539 320.46 80.1477 320.644 80.0413L321.463 79.5687C321.657 79.4563 321.821 79.3973 321.975 79.3914C322.118 79.3797 322.334 79.4214 322.569 79.5102L331.058 82.544L325.957 77.5545C325.813 77.4006 325.751 77.2824 325.761 77.2054C325.782 77.1226 325.874 77.0222 326.058 76.9158L327.01 76.3664C327.174 76.2718 327.348 76.2659 327.522 76.3666C327.573 76.3962 327.614 76.4316 327.666 76.4732C327.737 76.5329 327.799 76.5963 327.85 76.6625L333.313 82.6638C333.457 82.8177 333.518 82.9359 333.498 83.0188C333.478 83.1015 333.386 83.2021 333.212 83.3026L332.331 83.8107C332.137 83.923 331.973 83.982 331.819 83.9878C331.666 83.9935 331.461 83.9579 331.215 83.8631L323.013 80.9597L328.042 85.6829C328.196 85.8309 328.268 85.9434 328.258 86.0321C328.248 86.1207 328.135 86.2212 327.951 86.3275L327.071 86.8356ZM340.499 79.4033C339.967 79.7106 339.373 79.9822 338.738 80.2066C338.103 80.4309 337.571 80.5843 337.151 80.6491C336.895 80.6904 336.68 80.696 336.546 80.6666C336.416 80.6373 336.297 80.5929 336.198 80.5362L335.675 80.2342C335.459 80.1099 335.439 80.0033 335.592 79.9147C335.654 79.8793 335.725 79.8498 335.807 79.8261C335.889 79.8026 336.022 79.7731 336.166 79.7376C336.686 79.6209 337.184 79.4725 337.65 79.2948C338.142 79.106 338.582 78.8992 338.991 78.6629C339.636 78.2906 340.025 77.936 340.147 77.6049C340.269 77.2737 340.125 76.9779 339.705 76.7351C339.418 76.5693 339.09 76.4864 338.711 76.4801C338.331 76.4739 337.809 76.5743 337.144 76.7691L335.198 77.3592C334.215 77.6543 333.314 77.7722 332.514 77.7006C331.725 77.6349 331.049 77.4453 330.515 77.1374C330.085 76.8887 329.797 76.6164 329.653 76.3206C329.509 76.0249 329.467 75.7173 329.549 75.4096C329.62 75.0963 329.794 74.7948 330.08 74.4874C330.366 74.1799 330.745 73.9022 331.195 73.6422C331.42 73.5122 331.666 73.3823 331.922 73.2701C332.188 73.1519 332.444 73.0516 332.7 72.9512C332.956 72.8626 333.202 72.7799 333.447 72.709C333.693 72.6383 333.898 72.591 334.062 72.5676C334.287 72.5322 334.472 72.5204 334.625 72.5382C334.769 72.5502 334.912 72.5976 335.056 72.6805L335.538 72.9589C335.754 73.0833 335.785 73.1957 335.631 73.2843C335.549 73.3316 335.375 73.3847 335.119 73.4377C334.269 73.6207 333.481 73.9218 332.754 74.3413C332.171 74.678 331.802 74.9973 331.68 75.2928C331.558 75.5885 331.691 75.8547 332.112 76.0976C332.399 76.2633 332.747 76.3463 333.147 76.3406C333.547 76.335 334.12 76.229 334.837 76.0165L336.752 75.444C337.725 75.1547 338.585 75.0371 339.323 75.0966C340.061 75.1561 340.696 75.3458 341.23 75.6538C341.671 75.9084 341.979 76.1925 342.153 76.4943C342.318 76.8019 342.38 77.1214 342.309 77.4467C342.248 77.7779 342.054 78.103 341.747 78.4341C341.43 78.7828 341.021 79.102 340.499 79.4033Z" fill="#F6F6F6"/>
<path d="M343.129 102.676L342.132 103.251C341.787 103.12 341.432 103.034 341.068 102.994C340.706 102.952 340.347 102.949 339.991 102.984C339.635 103.017 339.293 103.084 338.966 103.186C338.639 103.288 338.34 103.418 338.066 103.576C337.568 103.863 337.243 104.197 337.09 104.575C336.94 104.953 336.991 105.352 337.243 105.772C337.497 106.191 337.981 106.606 338.693 107.018C339.406 107.429 340.125 107.708 340.851 107.855C341.579 108 342.27 108.03 342.924 107.943C343.58 107.855 344.157 107.667 344.655 107.379C344.928 107.222 345.153 107.049 345.33 106.86C345.507 106.671 345.625 106.475 345.684 106.271C345.743 106.064 345.736 105.856 345.664 105.647C345.591 105.435 345.443 105.23 345.218 105.032L346.214 104.457C346.56 104.743 346.799 105.039 346.933 105.345C347.067 105.652 347.103 105.957 347.042 106.262C346.977 106.565 346.822 106.857 346.576 107.138C346.332 107.418 346.003 107.678 345.587 107.918C344.886 108.323 344.09 108.584 343.201 108.702C342.312 108.819 341.394 108.786 340.449 108.602C339.503 108.418 338.597 108.075 337.729 107.574C336.861 107.073 336.268 106.55 335.949 106.004C335.63 105.458 335.573 104.929 335.776 104.415C335.98 103.902 336.432 103.443 337.134 103.038C337.549 102.798 337.999 102.608 338.484 102.467C338.972 102.325 339.479 102.236 340.007 102.2C340.532 102.163 341.059 102.183 341.59 102.261C342.117 102.336 342.63 102.475 343.129 102.676Z" fill="white"/>
<path d="M342.987 99.7887L351.215 104.539L350.267 105.086L342.039 100.336L342.987 99.7887Z" fill="white"/>
<path d="M355.587 102.163C355.03 102.485 354.409 102.69 353.723 102.78C353.04 102.868 352.342 102.843 351.63 102.704C350.92 102.563 350.246 102.309 349.609 101.941C348.966 101.569 348.522 101.178 348.275 100.767C348.031 100.354 347.986 99.9505 348.139 99.5562C348.294 99.1603 348.65 98.8016 349.207 98.48C349.764 98.1584 350.384 97.9535 351.067 97.8653C351.753 97.7757 352.452 97.8019 353.165 97.9442C353.88 98.0849 354.559 98.3408 355.202 98.7119C355.839 99.0799 356.278 99.4696 356.519 99.8809C356.763 100.291 356.807 100.693 356.652 101.089C356.499 101.484 356.144 101.842 355.587 102.163ZM354.736 101.671C355.159 101.427 355.398 101.164 355.455 100.881C355.511 100.598 355.428 100.316 355.206 100.036C354.983 99.7564 354.666 99.4974 354.253 99.2593C353.841 99.0212 353.391 98.8372 352.904 98.7073C352.416 98.5774 351.926 98.5279 351.433 98.5588C350.94 98.5898 350.482 98.7274 350.059 98.9717C349.636 99.216 349.397 99.4804 349.344 99.7649C349.29 100.049 349.376 100.332 349.601 100.614C349.826 100.895 350.145 101.155 350.557 101.393C350.97 101.631 351.418 101.814 351.903 101.943C352.388 102.071 352.875 102.119 353.366 102.087C353.856 102.054 354.312 101.916 354.736 101.671Z" fill="white"/>
<path d="M361.068 95.9373L357.42 93.8313L358.369 93.284L364.54 96.8465L363.591 97.3939L362.547 96.7909L362.483 96.828C362.651 97.0924 362.693 97.3761 362.607 97.6792C362.519 97.9807 362.242 98.266 361.775 98.5351C361.39 98.7577 360.963 98.9069 360.494 98.9827C360.022 99.0569 359.53 99.0446 359.015 98.9456C358.498 98.8451 357.977 98.6433 357.452 98.3402L353.531 96.0765L354.479 95.5291L358.336 97.7557C358.786 98.0155 359.271 98.15 359.791 98.1593C360.313 98.1671 360.771 98.0573 361.165 97.83C361.401 97.6939 361.58 97.5207 361.703 97.3104C361.829 97.0986 361.85 96.8728 361.767 96.6332C361.687 96.3919 361.454 96.16 361.068 95.9373Z" fill="white"/>
<path d="M368.735 94.573C368.221 94.8698 367.637 95.0569 366.983 95.1343C366.327 95.21 365.65 95.1745 364.95 95.0276C364.249 94.8791 363.571 94.6163 362.918 94.239C362.269 93.8648 361.818 93.4759 361.564 93.0723C361.309 92.6687 361.25 92.2775 361.387 91.8987C361.523 91.5199 361.851 91.1805 362.371 90.8805C362.773 90.6486 363.157 90.504 363.524 90.4468C363.891 90.3865 364.221 90.3695 364.513 90.3957C364.804 90.4189 365.039 90.4414 365.216 90.463L365.296 90.4166L362.259 88.6632L363.207 88.1158L371.435 92.8659L370.519 93.3947L369.571 92.8473L369.458 92.9123C369.501 93.0174 369.544 93.1566 369.587 93.3298C369.627 93.5014 369.595 93.6947 369.49 93.9096C369.383 94.123 369.131 94.3441 368.735 94.573ZM368.012 94.007C368.392 93.7875 368.615 93.5447 368.679 93.2787C368.74 93.0112 368.663 92.736 368.446 92.453C368.226 92.1685 367.883 91.8917 367.417 91.6227C366.957 91.3567 366.487 91.1627 366.007 91.0405C365.525 90.9168 365.056 90.8751 364.601 90.9153C364.143 90.9539 363.721 91.0846 363.335 91.3073C362.934 91.5392 362.702 91.792 362.64 92.0657C362.579 92.3363 362.656 92.6115 362.873 92.8914C363.09 93.1682 363.416 93.4318 363.85 93.6823C364.289 93.9359 364.755 94.1276 365.248 94.2575C365.741 94.3843 366.225 94.4323 366.702 94.4013C367.179 94.3673 367.615 94.2359 368.012 94.007Z" fill="white"/>
<path fill-rule="evenodd" clip-rule="evenodd" d="M416.957 153.422C414.263 151.867 414.318 149.315 417.078 147.721L436.072 136.756C438.833 135.162 443.254 135.131 445.947 136.685L461.708 145.784C464.494 147.393 462.089 150.177 458.137 149.919L445.78 149.112L454.12 153.927C456.543 155.326 456.494 157.623 454.01 159.057L445.363 164.049C442.602 165.643 438.181 165.675 435.488 164.12L416.957 153.422ZM420.98 149.973C420.428 150.292 420.417 150.802 420.955 151.113L439.486 161.811C440.025 162.122 440.909 162.116 441.461 161.797L450.259 156.719C450.535 156.559 450.39 156.391 450.121 156.235L438.937 149.779C436.151 148.17 438.556 145.386 442.508 145.644L454.865 146.451L441.949 138.994C441.41 138.683 441.026 138.401 440.473 138.719L420.98 149.973Z" fill="#12FFF7"/>
<path fill-rule="evenodd" clip-rule="evenodd" d="M416.957 153.422C414.263 151.867 414.318 149.315 417.078 147.721L436.072 136.756C438.833 135.162 443.254 135.131 445.947 136.685L461.708 145.784C464.494 147.393 462.089 150.177 458.137 149.919L445.78 149.112L454.12 153.927C456.543 155.326 456.494 157.623 454.01 159.057L445.363 164.049C442.602 165.643 438.181 165.675 435.488 164.12L416.957 153.422ZM420.98 149.973C420.428 150.292 420.417 150.802 420.955 151.113L439.486 161.811C440.025 162.122 440.909 162.116 441.461 161.797L450.259 156.719C450.535 156.559 450.39 156.391 450.121 156.235L438.937 149.779C436.151 148.17 438.556 145.386 442.508 145.644L454.865 146.451L441.949 138.994C441.41 138.683 441.026 138.401 440.473 138.719L420.98 149.973Z" fill="url(#paint0_linear_87_214)"/>
<path fill-rule="evenodd" clip-rule="evenodd" d="M416.957 153.422C414.263 151.867 414.318 149.315 417.078 147.721L436.072 136.756C438.833 135.162 443.254 135.131 445.947 136.685L461.708 145.784C464.494 147.393 462.089 150.177 458.137 149.919L445.78 149.112L454.12 153.927C456.543 155.326 456.494 157.623 454.01 159.057L445.363 164.049C442.602 165.643 438.181 165.675 435.488 164.12L416.957 153.422ZM420.98 149.973C420.428 150.292 420.417 150.802 420.955 151.113L439.486 161.811C440.025 162.122 440.909 162.116 441.461 161.797L450.259 156.719C450.535 156.559 450.39 156.391 450.121 156.235L438.937 149.779C436.151 148.17 438.556 145.386 442.508 145.644L454.865 146.451L441.949 138.994C441.41 138.683 441.026 138.401 440.473 138.719L420.98 149.973Z" fill="url(#paint1_linear_87_214)"/>
<path d="M436.072 136.756C438.833 135.162 443.254 135.131 445.947 136.685L461.708 145.784C464.494 147.393 462.09 150.177 458.138 149.919L445.781 149.112L454.12 153.926C456.544 155.326 456.495 157.623 454.011 159.057C454.287 158.898 454.292 158.642 454.023 158.487L438.938 149.779C436.152 148.17 438.556 145.386 442.508 145.644L454.865 146.451L438.048 136.741C437.509 136.43 436.624 136.437 436.072 136.756Z" fill="#B9FFB3"/>
<path d="M442.602 170.022L450.83 174.773L449.866 175.329L438.921 174.188L438.841 174.234L445.301 177.964L444.305 178.539L436.077 173.789L437.041 173.232L448.017 174.374L448.098 174.327L441.621 170.588L442.602 170.022Z" fill="white"/>
<path d="M455.411 172.276C454.816 172.62 454.172 172.84 453.478 172.937C452.785 173.032 452.084 173.009 451.377 172.87C450.67 172.728 450 172.474 449.368 172.109C448.736 171.744 448.294 171.356 448.043 170.945C447.791 170.531 447.737 170.125 447.882 169.73C448.026 169.331 448.377 168.97 448.934 168.649C449.256 168.463 449.627 168.311 450.047 168.192C450.468 168.073 450.927 168.009 451.425 167.999C451.921 167.989 452.442 168.053 452.988 168.192C453.535 168.331 454.096 168.567 454.672 168.899L455.073 169.131L450.317 171.877L449.497 171.404L453.29 169.215C452.941 169.014 452.561 168.875 452.149 168.797C451.739 168.718 451.328 168.707 450.915 168.762C450.505 168.817 450.129 168.943 449.786 169.14C449.409 169.359 449.175 169.601 449.087 169.869C448.999 170.133 449.03 170.394 449.18 170.65C449.33 170.907 449.575 171.134 449.915 171.33L450.461 171.645C450.927 171.914 451.403 172.096 451.887 172.19C452.372 172.282 452.844 172.293 453.302 172.223C453.757 172.152 454.176 172.006 454.559 171.785C454.808 171.641 454.998 171.491 455.13 171.335C455.261 171.175 455.329 171.012 455.335 170.845C455.337 170.677 455.272 170.507 455.138 170.337L456.311 169.957C456.525 170.192 456.636 170.443 456.644 170.711C456.65 170.977 456.551 171.244 456.347 171.513C456.141 171.781 455.829 172.035 455.411 172.276Z" fill="white"/>
<path d="M461.915 168.521C461.358 168.843 460.737 169.048 460.051 169.138C459.368 169.226 458.671 169.201 457.958 169.062C457.248 168.921 456.575 168.667 455.937 168.299C455.294 167.927 454.85 167.536 454.603 167.125C454.36 166.712 454.314 166.309 454.467 165.914C454.622 165.518 454.978 165.16 455.535 164.838C456.093 164.516 456.713 164.312 457.396 164.223C458.081 164.134 458.78 164.16 459.493 164.302C460.208 164.443 460.887 164.699 461.53 165.07C462.167 165.438 462.607 165.828 462.848 166.239C463.091 166.649 463.135 167.051 462.98 167.447C462.827 167.842 462.473 168.2 461.915 168.521ZM461.064 168.03C461.487 167.785 461.727 167.522 461.783 167.239C461.839 166.956 461.756 166.674 461.534 166.394C461.311 166.114 460.994 165.855 460.582 165.617C460.169 165.379 459.719 165.195 459.232 165.065C458.744 164.935 458.254 164.886 457.761 164.917C457.268 164.948 456.81 165.085 456.387 165.33C455.964 165.574 455.726 165.838 455.672 166.123C455.618 166.407 455.704 166.69 455.929 166.972C456.154 167.253 456.473 167.513 456.885 167.751C457.298 167.989 457.746 168.173 458.231 168.301C458.716 168.429 459.204 168.477 459.694 168.445C460.184 168.412 460.641 168.274 461.064 168.03Z" fill="white"/>
<path d="M463.266 163.307L466.979 165.45L466.031 165.997L459.859 162.435L460.775 161.906L461.74 162.462L461.82 162.416C461.651 162.152 461.619 161.879 461.724 161.6C461.825 161.318 462.109 161.043 462.575 160.774C462.993 160.533 463.445 160.371 463.929 160.289C464.411 160.206 464.912 160.213 465.432 160.312C465.949 160.41 466.47 160.61 466.995 160.913L470.916 163.177L469.968 163.724L466.111 161.498C465.626 161.218 465.123 161.072 464.6 161.061C464.075 161.049 463.593 161.17 463.154 161.423C462.851 161.598 462.646 161.792 462.539 162.005C462.435 162.217 462.44 162.435 462.555 162.66C462.67 162.884 462.907 163.099 463.266 163.307Z" fill="white"/>
<path d="M478.498 158.799L475.959 160.265L467.731 155.515L470.383 153.984C471.181 153.524 472.029 153.224 472.926 153.087C473.82 152.948 474.726 152.968 475.642 153.147C476.555 153.325 477.438 153.66 478.289 154.151C479.147 154.646 479.732 155.16 480.045 155.694C480.356 156.226 480.385 156.756 480.134 157.285C479.879 157.812 479.334 158.317 478.498 158.799ZM476.072 159.18L477.55 158.326C478.23 157.934 478.663 157.532 478.848 157.123C479.033 156.713 478.992 156.305 478.727 155.898C478.462 155.491 477.995 155.095 477.325 154.708C476.661 154.325 475.981 154.057 475.284 153.906C474.585 153.752 473.891 153.726 473.203 153.827C472.512 153.926 471.845 154.161 471.202 154.532L469.611 155.45L476.072 159.18Z" fill="white"/>
<path d="M484.091 155.571L475.863 150.821L478.739 149.16C479.313 148.829 479.884 148.613 480.455 148.513C481.023 148.411 481.564 148.403 482.078 148.49C482.59 148.575 483.046 148.733 483.448 148.965C483.802 149.169 484.031 149.374 484.135 149.58C484.242 149.784 484.261 149.983 484.191 150.178C484.124 150.372 484.005 150.555 483.834 150.728L483.914 150.774C484.182 150.638 484.523 150.543 484.939 150.489C485.354 150.435 485.797 150.445 486.268 150.519C486.74 150.593 487.193 150.756 487.626 151.006C488.039 151.244 488.316 151.513 488.458 151.811C488.6 152.11 488.565 152.431 488.354 152.776C488.142 153.121 487.712 153.48 487.064 153.855L484.091 155.571ZM484.203 154.485L486.18 153.344C486.831 152.969 487.167 152.629 487.189 152.326C487.21 152.02 487.04 151.762 486.678 151.554C486.4 151.393 486.072 151.285 485.694 151.231C485.314 151.176 484.921 151.183 484.517 151.252C484.11 151.32 483.727 151.458 483.368 151.665L481.343 152.834L484.203 154.485ZM480.475 152.333L482.323 151.266C482.623 151.093 482.835 150.903 482.958 150.696C483.084 150.487 483.111 150.28 483.038 150.074C482.969 149.867 482.789 149.68 482.5 149.513C482.138 149.304 481.706 149.2 481.202 149.2C480.696 149.198 480.17 149.355 479.623 149.67L477.743 150.756L480.475 152.333Z" fill="white"/>
<defs>
<linearGradient id="paint0_linear_87_214" x1="489.941" y1="152.342" x2="412.925" y2="135.962" gradientUnits="userSpaceOnUse">
<stop stop-color="#B9FFB3"/>
<stop offset="1" stop-color="#B9FFB3" stop-opacity="0"/>
</linearGradient>
<linearGradient id="paint1_linear_87_214" x1="489.941" y1="152.342" x2="460.267" y2="172.442" gradientUnits="userSpaceOnUse">
<stop stop-color="#1A1A1A" stop-opacity="0.9"/>
<stop offset="1" stop-color="#1A1A1A" stop-opacity="0"/>
</linearGradient>
</defs>
</svg>
