<svg width="908" height="268" viewBox="0 0 908 268" fill="none" xmlns="http://www.w3.org/2000/svg">
<path d="M34.7159 33.9091H58.9886L84.625 96.4545H85.7159L111.352 33.9091H135.625V127H116.534V66.4091H115.761L91.6705 126.545H78.6705L54.5795 66.1818H53.8068V127H34.7159V33.9091ZM243.786 80.4545C243.786 90.6061 241.862 99.2424 238.014 106.364C234.195 113.485 228.983 118.924 222.377 122.682C215.802 126.409 208.408 128.273 200.195 128.273C191.923 128.273 184.498 126.394 177.923 122.636C171.347 118.879 166.15 113.439 162.332 106.318C158.514 99.197 156.605 90.5758 156.605 80.4545C156.605 70.303 158.514 61.6667 162.332 54.5455C166.15 47.4242 171.347 42 177.923 38.2727C184.498 34.5151 191.923 32.6364 200.195 32.6364C208.408 32.6364 215.802 34.5151 222.377 38.2727C228.983 42 234.195 47.4242 238.014 54.5455C241.862 61.6667 243.786 70.303 243.786 80.4545ZM223.832 80.4545C223.832 73.8788 222.847 68.3333 220.877 63.8182C218.938 59.303 216.195 55.8788 212.65 53.5455C209.105 51.2121 204.953 50.0455 200.195 50.0455C195.438 50.0455 191.286 51.2121 187.741 53.5455C184.195 55.8788 181.438 59.303 179.468 63.8182C177.529 68.3333 176.559 73.8788 176.559 80.4545C176.559 87.0303 177.529 92.5758 179.468 97.0909C181.438 101.606 184.195 105.03 187.741 107.364C191.286 109.697 195.438 110.864 200.195 110.864C204.953 110.864 209.105 109.697 212.65 107.364C216.195 105.03 218.938 101.606 220.877 97.0909C222.847 92.5758 223.832 87.0303 223.832 80.4545ZM342.63 33.9091V127H325.63L285.13 68.4091H284.448V127H264.766V33.9091H282.039L322.22 92.4545H323.039V33.9091H342.63ZM365.291 127V33.9091H384.973V74.9545H386.2L419.7 33.9091H443.291L408.745 75.5909L443.7 127H420.155L394.655 88.7273L384.973 100.545V127H365.291ZM459.941 127V33.9091H522.668V50.1364H479.623V72.3182H519.441V88.5455H479.623V110.773H522.85V127H459.941ZM539.261 33.9091H561.307L582.534 74H583.443L604.67 33.9091H626.716L592.761 94.0909V127H573.216V94.0909L539.261 33.9091Z" fill="white"/>
<rect x="116" y="29" width="21" height="21" fill="#121212"/>
<rect x="102" y="30" width="20" height="20" fill="white"/>
<rect x="41" y="29" width="30" height="21" fill="#121212"/>
<rect x="28" y="30" width="20" height="20" fill="white"/>
<rect x="275" y="29" width="21" height="21" fill="#121212"/>
<rect x="257" y="30" width="20" height="20" fill="white"/>
<rect x="327" y="29" width="21" height="21" fill="#121212"/>
<rect x="313" y="30" width="20" height="20" fill="white"/>
<rect x="374" y="29" width="21" height="21" fill="#121212"/>
<rect x="355" y="30" width="20" height="20" fill="white"/>
<path d="M527 34H549L559 53H537.5L527 34Z" fill="white"/>
<path d="M548 33H570L580 52H558.5L548 33Z" fill="#121212"/>
<rect x="218" y="30" width="21" height="21" fill="#121212"/>
<path d="M284.203 235V141.909H345.84V158.136H303.885V180.318H341.749V196.545H303.885V235H284.203ZM385.16 141.909V235H365.478V141.909H385.16ZM485.617 141.909V235H468.617L428.117 176.409H427.435V235H407.753V141.909H425.026L465.208 200.455H466.026V141.909H485.617ZM524.324 235H503.233L535.369 141.909H560.733L592.824 235H571.733L548.415 163.182H547.687L524.324 235ZM523.006 198.409H572.824V213.773H523.006V198.409ZM688.292 141.909V235H671.292L630.792 176.409H630.11V235H610.428V141.909H627.701L667.883 200.455H668.701V141.909H688.292ZM793.09 174.5H773.181C772.817 171.924 772.075 169.636 770.953 167.636C769.832 165.606 768.393 163.879 766.635 162.455C764.878 161.03 762.847 159.939 760.544 159.182C758.272 158.424 755.802 158.045 753.135 158.045C748.317 158.045 744.12 159.242 740.544 161.636C736.969 164 734.196 167.455 732.226 172C730.256 176.515 729.272 182 729.272 188.455C729.272 195.091 730.256 200.667 732.226 205.182C734.226 209.697 737.014 213.106 740.59 215.409C744.166 217.712 748.302 218.864 752.999 218.864C755.635 218.864 758.075 218.515 760.317 217.818C762.59 217.121 764.605 216.106 766.362 214.773C768.12 213.409 769.575 211.758 770.726 209.818C771.908 207.879 772.726 205.667 773.181 203.182L793.09 203.273C792.575 207.545 791.287 211.667 789.226 215.636C787.196 219.576 784.453 223.106 780.999 226.227C777.575 229.318 773.484 231.773 768.726 233.591C763.999 235.379 758.65 236.273 752.681 236.273C744.378 236.273 736.953 234.394 730.408 230.636C723.893 226.879 718.741 221.439 714.953 214.318C711.196 207.197 709.317 198.576 709.317 188.455C709.317 178.303 711.226 169.667 715.044 162.545C718.862 155.424 724.044 150 730.59 146.273C737.135 142.515 744.499 140.636 752.681 140.636C758.075 140.636 763.075 141.394 767.681 142.909C772.317 144.424 776.423 146.636 779.999 149.545C783.575 152.424 786.484 155.955 788.726 160.136C790.999 164.318 792.453 169.106 793.09 174.5ZM813.603 235V141.909H876.331V158.136H833.285V180.318H873.103V196.545H833.285V218.773H876.513V235H813.603Z" fill="white"/>
<path d="M686.653 62.6818C686.29 59.0151 684.729 56.1667 681.972 54.1364C679.214 52.1061 675.472 51.0909 670.744 51.0909C667.532 51.0909 664.82 51.5455 662.608 52.4545C660.396 53.3333 658.699 54.5606 657.517 56.1364C656.366 57.7121 655.79 59.5 655.79 61.5C655.729 63.1667 656.078 64.6212 656.835 65.8636C657.623 67.1061 658.699 68.1818 660.062 69.0909C661.426 69.9697 663.002 70.7424 664.79 71.4091C666.578 72.0455 668.487 72.5909 670.517 73.0455L678.881 75.0455C682.941 75.9545 686.669 77.1667 690.062 78.6818C693.456 80.197 696.396 82.0606 698.881 84.2727C701.366 86.4848 703.29 89.0909 704.653 92.0909C706.047 95.0909 706.759 98.5303 706.79 102.409C706.759 108.106 705.305 113.045 702.426 117.227C699.578 121.379 695.456 124.606 690.062 126.909C684.699 129.182 678.229 130.318 670.653 130.318C663.138 130.318 656.593 129.167 651.017 126.864C645.472 124.561 641.138 121.152 638.017 116.636C634.926 112.091 633.305 106.47 633.153 99.7727H652.199C652.411 102.894 653.305 105.5 654.881 107.591C656.487 109.652 658.623 111.212 661.29 112.273C663.987 113.303 667.032 113.818 670.426 113.818C673.759 113.818 676.653 113.333 679.108 112.364C681.593 111.394 683.517 110.045 684.881 108.318C686.244 106.591 686.926 104.606 686.926 102.364C686.926 100.273 686.305 98.5152 685.062 97.0909C683.85 95.6667 682.063 94.4545 679.699 93.4545C677.366 92.4545 674.502 91.5455 671.108 90.7273L660.972 88.1818C653.123 86.2727 646.926 83.2879 642.381 79.2273C637.835 75.1667 635.578 69.697 635.608 62.8182C635.578 57.1818 637.078 52.2576 640.108 48.0455C643.169 43.8333 647.366 40.5455 652.699 38.1818C658.032 35.8182 664.093 34.6364 670.881 34.6364C677.79 34.6364 683.82 35.8182 688.972 38.1818C694.153 40.5455 698.184 43.8333 701.062 48.0455C703.941 52.2576 705.426 57.1364 705.517 62.6818H686.653Z" fill="white"/>
<rect x="355" y="141" width="20" height="20" fill="white"/>
<rect x="375" y="141" width="20" height="20" fill="#121212"/>
<rect x="401" y="141" width="20" height="20" fill="white"/>
<rect x="421" y="141" width="20" height="20" fill="#121212"/>
<rect x="601" y="141" width="20" height="20" fill="white"/>
<rect x="621" y="141" width="20" height="20" fill="#121212"/>
<rect x="529" y="140" width="20" height="20" fill="white"/>
<rect x="549" y="140" width="20" height="20" fill="#121212"/>
<rect x="659" y="140" width="20" height="20" fill="white"/>
<rect x="679" y="140" width="20" height="20" fill="#121212"/>
<rect x="456" y="141" width="20" height="20" fill="white"/>
<rect x="476" y="141" width="20" height="20" fill="#121212"/>
</svg>
