<svg width="44" height="28" viewBox="0 0 44 28" fill="none" xmlns="http://www.w3.org/2000/svg">
<path d="M35.7551 19.1928C37.3039 19.0042 40.7195 18.5982 41.3275 19.3814C41.9353 20.1503 40.6473 23.3851 40.0683 24.821C39.8946 25.2563 40.271 25.4303 40.6617 25.0967C43.209 22.9498 43.8748 18.4674 43.3539 17.8147C42.8326 17.1767 38.3605 16.6253 35.6392 18.5402C35.2195 18.8446 35.2919 19.2509 35.7551 19.1928Z" fill="#FF9900"/>
<path d="M21.7152 27.0404C27.664 27.0404 34.5822 25.1689 39.3442 21.6442C40.1256 21.064 39.4454 20.1793 38.6493 20.5419C33.3086 22.8046 27.5047 23.9073 22.2217 23.9073C14.3915 23.9073 6.82174 21.746 0.685208 18.1776C0.149288 17.8585 -0.255806 18.4096 0.192701 18.8159C5.86665 23.9507 13.3783 27.0404 21.7152 27.0404Z" fill="#FF9900"/>
<path d="M12.2235 9.47203C12.2235 10.0088 12.2812 10.4438 12.3824 10.763C12.5111 11.122 12.666 11.471 12.8459 11.8073C12.9181 11.9234 12.9471 12.0396 12.9471 12.1411C12.9471 12.2863 12.8603 12.4315 12.672 12.5764L11.7603 13.1856C11.63 13.2725 11.4995 13.3162 11.3839 13.3162C11.239 13.3162 11.0944 13.2434 10.9498 13.1129C10.7547 12.9028 10.5801 12.6745 10.4285 12.4312C10.2667 12.1524 10.117 11.8669 9.97975 11.5752C8.851 12.9099 7.43244 13.5772 5.72466 13.5772C4.50879 13.5772 3.53932 13.229 2.83004 12.533C2.12076 11.8366 1.75879 10.9079 1.75879 9.74776C1.75879 8.51459 2.19292 7.51373 3.07586 6.75957C3.95879 6.00512 5.13124 5.62819 6.62226 5.62819C7.11418 5.62819 7.62076 5.6716 8.15639 5.74405C8.69172 5.8168 9.24172 5.93267 9.82076 6.0632V5.00427C9.82076 3.90192 9.58903 3.13309 9.14023 2.68341C8.67735 2.23373 7.89562 2.01637 6.78124 2.01637C6.27466 2.01637 5.7537 2.07416 5.21807 2.20469C4.68595 2.3318 4.16357 2.49668 3.6549 2.69808C3.49031 2.7719 3.32109 2.8349 3.14831 2.88669C3.04711 2.91544 2.97466 2.93011 2.91658 2.93011C2.71418 2.93011 2.61268 2.7852 2.61268 2.48043V1.76968C2.61268 1.53765 2.64202 1.36341 2.71418 1.26221C2.78634 1.16043 2.91658 1.05893 3.11927 0.957147C3.62586 0.69608 4.23394 0.47872 4.94292 0.30448C5.6522 0.11616 6.40519 0.0287467 7.201 0.0287467C8.92346 0.0287467 10.1824 0.42064 10.9929 1.20384C11.789 1.98704 12.1944 3.1768 12.1944 4.77224V9.47203H12.2235ZM6.34711 11.677C6.82466 11.677 7.31687 11.5899 7.83783 11.4159C8.35879 11.2417 8.82196 10.9226 9.21268 10.4875C9.44442 10.2118 9.61807 9.90733 9.7049 9.55915C9.79172 9.21096 9.84951 8.79032 9.84951 8.29723V7.68797C9.41066 7.58098 8.96614 7.49872 8.51807 7.44157C8.06685 7.38403 7.61246 7.35484 7.15759 7.35416C6.18783 7.35416 5.47855 7.54277 5.001 7.93437C4.52346 8.32627 4.29172 8.87744 4.29172 9.60256C4.29172 10.2843 4.46538 10.792 4.82735 11.1402C5.17466 11.5028 5.68124 11.677 6.34682 11.677H6.34711ZM17.9693 13.2434C17.7088 13.2434 17.5351 13.2 17.4193 13.0985C17.3037 13.0114 17.2022 12.8081 17.1154 12.5327L13.7142 1.32C13.6273 1.0296 13.5839 0.84128 13.5839 0.739787C13.5839 0.50776 13.6995 0.377227 13.9312 0.377227H15.3495C15.6247 0.377227 15.813 0.42064 15.9142 0.522133C16.03 0.609253 16.1166 0.812533 16.2037 1.08797L18.6354 10.6905L20.8932 1.08797C20.9654 0.797573 21.0522 0.609253 21.1681 0.522133C21.2839 0.435013 21.4863 0.377227 21.7471 0.377227H22.9049C23.18 0.377227 23.3681 0.42064 23.4839 0.522133C23.5998 0.609253 23.701 0.812533 23.7588 1.08797L26.0456 10.8067L28.5498 1.08797C28.6363 0.797573 28.7375 0.609253 28.839 0.522133C28.9549 0.435013 29.1429 0.377227 29.4037 0.377227H30.7495C30.9812 0.377227 31.1115 0.493093 31.1115 0.739787C31.1115 0.81224 31.0971 0.884693 31.0824 0.971813C31.0598 1.0955 31.0259 1.21685 30.9812 1.33437L27.4932 12.5476C27.4061 12.8377 27.3049 13.0261 27.189 13.1132C27.0735 13.2003 26.8851 13.2584 26.639 13.2584H25.3944C25.1193 13.2584 24.9309 13.2147 24.8154 13.1132C24.6998 13.0117 24.5983 12.8231 24.5405 12.533L22.2971 3.17709L20.0681 12.5186C19.9956 12.8087 19.9088 12.9973 19.7929 13.0988C19.6773 13.2003 19.4747 13.2437 19.2142 13.2437L17.9693 13.2434ZM36.5681 13.6353C35.8154 13.6353 35.0627 13.5482 34.339 13.3742C33.6154 13.2 33.051 13.0114 32.6747 12.7937C32.4429 12.6632 32.2839 12.518 32.2259 12.3878C32.1696 12.2597 32.14 12.1214 32.139 11.9815V11.2417C32.139 10.9372 32.2549 10.792 32.472 10.792C32.5588 10.792 32.6456 10.8067 32.7324 10.8354C32.8193 10.8648 32.9495 10.9226 33.0944 10.9806C33.6056 11.2059 34.1394 11.376 34.6866 11.4881C35.2654 11.6043 35.83 11.6623 36.4088 11.6623C37.3208 11.6623 38.03 11.5028 38.522 11.1836C39.0142 10.8645 39.2747 10.4004 39.2747 9.80555C39.2747 9.39957 39.1444 9.06605 38.8839 8.79032C38.6235 8.51459 38.1312 8.26819 37.422 8.03616L35.3235 7.3832C34.2669 7.04968 33.4851 6.55659 33.0076 5.90363C32.53 5.26533 32.2839 4.55459 32.2839 3.80043C32.2839 3.19117 32.4142 2.65437 32.6747 2.19032C32.9351 1.72627 33.2824 1.32 33.7169 1.00085C34.151 0.667333 34.6429 0.42064 35.222 0.246693C35.801 0.0724533 36.4088 0 37.0456 0C37.3642 0 37.6971 0.0146667 38.0154 0.05808C38.3483 0.101493 38.6522 0.159573 38.9561 0.217653C39.2456 0.290107 39.5208 0.36256 39.7812 0.449387C40.0417 0.5368 40.2444 0.623627 40.389 0.710747C40.5917 0.826907 40.7366 0.942773 40.8235 1.07331C40.9103 1.18947 40.9537 1.34904 40.9537 1.55203V2.23403C40.9537 2.5388 40.8378 2.69837 40.6208 2.69837C40.5049 2.69837 40.3169 2.64029 40.0708 2.52413C39.2456 2.1472 38.3193 1.95859 37.2917 1.95859C36.4669 1.95859 35.8154 2.08912 35.3669 2.36456C34.9181 2.64029 34.6866 3.06093 34.6866 3.65581C34.6866 4.06179 34.8312 4.40968 35.1208 4.68541C35.4103 4.96115 35.9456 5.23688 36.7127 5.48328L38.7681 6.13624C39.8103 6.46976 40.5627 6.93411 41.0115 7.52869C41.4603 8.12328 41.6773 8.80499 41.6773 9.55944C41.6773 10.1831 41.5471 10.7489 41.301 11.242C41.0405 11.7351 40.6932 12.1704 40.2444 12.5186C39.7956 12.8811 39.2603 13.1422 38.6378 13.3308C37.9866 13.5338 37.3061 13.6353 36.5681 13.6353Z" fill="#F6F6F6"/>
</svg>
